<?xml version="1.0" encoding="utf-8"?>
<!-- Generator: Adobe Illustrator 22.1.0, SVG Export Plug-In . SVG Version: 6.00 Build 0)  -->
<svg version="1.1" id="Layer_1" xmlns="http://www.w3.org/2000/svg" xmlns:xlink="http://www.w3.org/1999/xlink" x="0px" y="0px"
	 width="24.1px" height="18.7px" viewBox="0 0 24.1 18.7" style="enable-background:new 0 0 24.1 18.7;" xml:space="preserve">
<style type="text/css">
	.st0{fill:#97C8B4;}
	.st1{opacity:0.72;fill:#539C79;}
</style>
<path class="st0" d="M14.8,18.7H9.3C4.2,18.7,0,14.5,0,9.3l0,0C0,4.2,4.2,0,9.3,0h5.4C19.8,0,24,4.2,24,9.3l0,0
	C24.1,14.5,19.9,18.7,14.8,18.7z"/>
<path class="st1" d="M14.8,18.7H9.3C4.2,18.7,0,14.5,0,9.3l0,0C0,4.2,4.2,0,9.3,0h5.4C19.8,0,24,4.2,24,9.3l0,0
	C24.1,14.5,19.9,18.7,14.8,18.7z"/>
</svg>
