<?xml version="1.0" encoding="utf-8"?>
<!-- Generator: Adobe Illustrator 22.1.0, SVG Export Plug-In . SVG Version: 6.00 Build 0)  -->
<svg version="1.1" id="Layer_1" xmlns="http://www.w3.org/2000/svg" xmlns:xlink="http://www.w3.org/1999/xlink" x="0px" y="0px"
	 width="216.8px" height="130.7px" viewBox="0 0 216.8 130.7" style="enable-background:new 0 0 216.8 130.7;" xml:space="preserve"
	>
<style type="text/css">
	.st0{fill:#AE9692;}
	.st1{fill:#91756A;}
	.st2{fill:#7D6769;}
	.st3{fill:#1E1A1E;}
	.st4{fill:#6E5A5B;}
	.st5{fill:#1D1B22;}
	.st6{fill:#CBBFB8;}
	.st7{fill:#977F72;}
	.st8{fill:#A09291;}
	.st9{fill:#795E52;}
	.st10{fill:#9E8B96;}
	.st11{fill:#796C7C;}
	.st12{fill:#322628;}
	.st13{fill:#584542;}
	.st14{fill:#4E4347;}
	.st15{enable-background:new    ;}
	.st16{fill:#FFFFFF;}
</style>
<polygon class="st0" points="66.6,8.5 52.2,8.5 52.2,0 60.5,0 "/>
<polygon class="st1" points="35.7,0 28.8,8.5 52.5,8.6 52.5,0 "/>
<rect x="52.2" y="8.5" class="st2" width="14.3" height="93.7"/>
<polygon class="st3" points="66.6,35.8 62.8,40.5 62.8,107.2 66.6,107.2 "/>
<polygon class="st4" points="41.1,100.6 40.3,26 28.8,18.1 28.8,8.5 52.5,8.5 52.5,101.9 40.8,101.9 "/>
<polygon class="st5" points="38.2,33.8 38.2,107.2 41.3,107.2 41.3,26.3 37.6,23.9 "/>
<polygon class="st6" points="38.7,24.6 28.4,17.7 23.4,17.7 23.4,24.6 "/>
<polygon class="st7" points="35.1,130.7 23.5,130.7 23.5,63.7 23.5,24.6 38.7,24.6 38.7,104.7 37.1,107.3 37.1,130.7 "/>
<polygon class="st8" points="18.8,17.7 7.8,17.7 2.3,24.6 24.2,24.6 24.2,17.7 "/>
<polygon class="st9" points="2.3,32.1 2.3,130.7 24.2,130.7 24.2,24.6 2.3,24.6 "/>
<polygon class="st10" points="62.8,101.9 66.5,107.2 55.7,107.2 55.7,101.9 "/>
<polygon class="st11" points="52.5,107.2 37.1,107.2 40.8,101.9 55.7,101.9 55.7,107.2 "/>
<polygon class="st12" points="42.5,130.7 37.1,130.7 37.1,107.2 55.7,107.2 55.7,130.7 "/>
<polygon class="st13" points="57.3,130.7 66.6,130.7 66.6,107.2 55.7,107.2 55.7,130.7 "/>
<path class="st14" d="M86.5,30.9H72.3H70c-0.1,0-0.4,0.1-0.7,0.2c-3.5,1.1-3.6,6.2-3.5,6.9v16.3v52.9v16.3c-0.1,0.7,0,5.8,3.5,6.9
	c0.3,0.1,0.5,0.2,0.7,0.2h2.3h14.3h107.3H208h2.3c0.1,0,0.4-0.1,0.7-0.2c3.5-1.1,3.6-6.2,3.5-6.9v-16.3V54.3V38
	c0.1-0.7,0-5.8-3.5-6.9c-0.3-0.1-0.5-0.2-0.7-0.2H208h-14.3H86.5z"/>
<g class="st15">
	<path class="st16" d="M83.9,64.2V78h-0.1l-9.3-8.4l0.1,7.8H72V63.7h0.1l9.3,8.5l-0.1-8H83.9z"/>
	<path class="st16" d="M92.9,74.9h-4.4l-1.1,2.6h-2.6l6-13.8H91l6,13.8h-3L92.9,74.9z M92.1,72.7l-1.3-3.2l-1.3,3.2H92.1z"/>
	<path class="st16" d="M104.9,64.2v2.5h-3.2v10.7h-2.6V66.7H96v-2.5H104.9z"/>
	<path class="st16" d="M109.1,64.2v13.2h-2.6V64.2H109.1z"/>
	<path class="st16" d="M111.7,67.5c0.6-1,1.4-1.9,2.5-2.5s2.2-0.9,3.4-0.9s2.3,0.3,3.4,0.9s1.9,1.4,2.5,2.5s0.9,2.2,0.9,3.4
		c0,1.2-0.3,2.4-0.9,3.4s-1.4,1.9-2.5,2.5c-1,0.6-2.2,0.9-3.4,0.9c-1.2,0-2.4-0.3-3.4-0.9c-1-0.6-1.9-1.4-2.5-2.5
		c-0.6-1-0.9-2.2-0.9-3.4C110.8,69.7,111.1,68.5,111.7,67.5z M114.1,73c0.4,0.6,0.9,1.2,1.5,1.5s1.3,0.6,2.1,0.6
		c0.7,0,1.4-0.2,2-0.6c0.6-0.4,1.1-0.9,1.4-1.5c0.3-0.6,0.5-1.4,0.5-2.1c0-0.8-0.2-1.5-0.5-2.2c-0.4-0.6-0.8-1.2-1.5-1.5
		s-1.3-0.6-2.1-0.6s-1.4,0.2-2.1,0.6s-1.1,0.9-1.5,1.5c-0.4,0.6-0.5,1.4-0.5,2.2C113.5,71.6,113.7,72.3,114.1,73z"/>
	<path class="st16" d="M137.9,64.2V78h-0.1l-9.3-8.4l0.1,7.8H126V63.7h0.1l9.3,8.5l-0.1-8H137.9z"/>
	<path class="st16" d="M147,74.9h-4.4l-1.1,2.6h-2.6l6-13.8h0.1l6,13.8h-3L147,74.9z M146.1,72.7l-1.3-3.2l-1.3,3.2H146.1z"/>
	<path class="st16" d="M154.6,64.2v10.7h6.2v2.5H152V64.2H154.6z"/>
	<path class="st16" d="M175.3,65.4c0.9,0.8,1.3,1.9,1.3,3.3c0,0.8-0.2,1.5-0.5,2.2c-0.3,0.7-0.8,1.3-1.5,1.7
		c-0.7,0.4-1.6,0.7-2.7,0.7h-1.9v4.2h-2.6V64.2h4C173.2,64.2,174.4,64.6,175.3,65.4z M173.2,70.4c0.3-0.2,0.5-0.5,0.6-0.8
		s0.2-0.6,0.2-0.9c0-0.5-0.1-0.9-0.4-1.4c-0.3-0.4-0.8-0.7-1.6-0.7h-1.9v4h1.9C172.5,70.7,172.9,70.6,173.2,70.4z"/>
	<path class="st16" d="M183.3,74.9h-4.4l-1.1,2.6h-2.6l6-13.8h0.1l6,13.8h-3L183.3,74.9z M182.4,72.7l-1.3-3.2l-1.3,3.2H182.4z"/>
	<path class="st16" d="M195.4,77.5l-2.8-4.2h-1.7v4.2h-2.6V64.2h4c1.6,0,2.9,0.4,3.8,1.2c0.9,0.8,1.4,1.9,1.4,3.3
		c0,0.8-0.2,1.6-0.5,2.3c-0.3,0.7-0.9,1.3-1.6,1.7l3.1,4.8H195.4z M190.9,70.7h1.9c0.7,0,1.2-0.2,1.5-0.6c0.3-0.4,0.5-0.9,0.5-1.3
		c0-0.5-0.1-0.9-0.4-1.4c-0.3-0.4-0.8-0.7-1.6-0.7h-1.9V70.7z"/>
	<path class="st16" d="M202.3,69.6l0.4-0.5l4.3-4.9h3.4l-5.5,5.9l5.5,7.3h-3.3l-4.1-5.7l-0.6,0.6v5h-2.6V64.2h2.6v4.7L202.3,69.6z"
		/>
</g>
<g class="st15">
	<path class="st16" d="M98.4,91.2l-4.7,10.8L89,91.2h2.4l2.4,5.8l2.2-5.8H98.4z"/>
	<path class="st16" d="M101.3,91.2v10.3h-2V91.2H101.3z"/>
	<path class="st16" d="M106.2,92.9c-0.4,0-0.8,0.1-1,0.3c-0.2,0.2-0.4,0.4-0.4,0.8c0,0.3,0.2,0.6,0.5,0.9c0.4,0.2,0.8,0.5,1.4,0.7
		c0.5,0.2,0.9,0.4,1.2,0.6c0.3,0.2,0.6,0.5,0.9,0.9s0.3,0.9,0.3,1.5c0,0.5-0.1,1-0.4,1.5c-0.3,0.5-0.7,0.8-1.2,1.1s-1.2,0.4-1.9,0.4
		c-0.6,0-1.2-0.1-1.8-0.3c-0.6-0.2-1.2-0.5-1.7-0.8l0.9-1.6c0.4,0.3,0.8,0.5,1.2,0.6c0.5,0.2,0.9,0.3,1.2,0.3c0.4,0,0.8-0.1,1.1-0.3
		c0.3-0.2,0.5-0.5,0.5-0.9c0-0.5-0.5-1-1.5-1.4c-0.6-0.2-1.1-0.5-1.5-0.7c-0.4-0.2-0.7-0.5-1-0.9c-0.3-0.4-0.4-0.9-0.4-1.5
		c0-0.9,0.3-1.6,0.9-2.1c0.6-0.5,1.4-0.8,2.3-0.9c0.8,0,1.4,0.1,1.9,0.3c0.5,0.2,1,0.4,1.5,0.7l-0.8,1.6
		C107.7,93.2,106.9,92.9,106.2,92.9z"/>
	<path class="st16" d="M112.3,91.2v10.3h-2V91.2H112.3z"/>
	<path class="st16" d="M120.3,91.2v2h-2.5v8.3h-2v-8.3h-2.4v-2H120.3z"/>
	<path class="st16" d="M121.1,93.7c0.5-0.8,1.1-1.5,1.9-1.9c0.8-0.5,1.7-0.7,2.6-0.7s1.8,0.2,2.6,0.7c0.8,0.5,1.5,1.1,1.9,1.9
		c0.5,0.8,0.7,1.7,0.7,2.6c0,1-0.2,1.8-0.7,2.6c-0.5,0.8-1.1,1.4-1.9,1.9c-0.8,0.5-1.7,0.7-2.6,0.7c-1,0-1.8-0.2-2.6-0.7
		c-0.8-0.5-1.4-1.1-1.9-1.9s-0.7-1.7-0.7-2.6C120.4,95.4,120.6,94.5,121.1,93.7z M122.9,98c0.3,0.5,0.7,0.9,1.2,1.2
		c0.5,0.3,1,0.4,1.6,0.4c0.6,0,1.1-0.1,1.6-0.4c0.5-0.3,0.8-0.7,1.1-1.2c0.3-0.5,0.4-1.1,0.4-1.7c0-0.6-0.1-1.2-0.4-1.7
		c-0.3-0.5-0.7-0.9-1.1-1.2s-1-0.4-1.6-0.4s-1.1,0.1-1.6,0.4s-0.9,0.7-1.1,1.2c-0.3,0.5-0.4,1.1-0.4,1.7
		C122.5,96.9,122.6,97.5,122.9,98z"/>
	<path class="st16" d="M137.6,101.5l-2.2-3.3H134v3.3h-2V91.2h3.1c1.3,0,2.3,0.3,3,0.9c0.7,0.6,1.1,1.5,1.1,2.5
		c0,0.6-0.1,1.2-0.4,1.8c-0.3,0.6-0.7,1-1.2,1.3l2.4,3.7H137.6z M134,96.2h1.4c0.6,0,1-0.2,1.2-0.5c0.3-0.3,0.4-0.7,0.4-1
		s-0.1-0.7-0.3-1.1c-0.2-0.3-0.6-0.5-1.2-0.5H134V96.2z"/>
	<path class="st16" d="M150.8,101.3c-0.6,0.2-1.2,0.3-1.9,0.3c-1.1,0-2-0.2-2.8-0.7c-0.8-0.5-1.4-1.1-1.8-1.9
		c-0.4-0.8-0.6-1.7-0.6-2.6c0-1,0.2-2,0.6-2.8c0.4-0.8,1-1.4,1.8-1.9c0.8-0.5,1.6-0.7,2.6-0.7c0.6,0,1.2,0.1,1.7,0.3s1,0.4,1.4,0.6
		l-0.8,1.9c-0.7-0.6-1.5-0.8-2.3-0.8c-0.5,0-1,0.1-1.5,0.4c-0.5,0.3-0.8,0.7-1.1,1.2c-0.3,0.5-0.4,1.1-0.4,1.7
		c0,0.7,0.1,1.2,0.4,1.7c0.3,0.5,0.6,0.9,1.1,1.2c0.5,0.3,1,0.4,1.6,0.4c0.5,0,1-0.1,1.4-0.2c0.4-0.2,0.7-0.4,1-0.6l0.8,1.8
		C151.8,100.8,151.4,101,150.8,101.3z"/>
	<path class="st16" d="M153.2,93.7c0.5-0.8,1.1-1.5,1.9-1.9c0.8-0.5,1.7-0.7,2.6-0.7s1.8,0.2,2.6,0.7c0.8,0.5,1.5,1.1,1.9,1.9
		c0.5,0.8,0.7,1.7,0.7,2.6c0,1-0.2,1.8-0.7,2.6c-0.5,0.8-1.1,1.4-1.9,1.9c-0.8,0.5-1.7,0.7-2.6,0.7c-1,0-1.8-0.2-2.6-0.7
		c-0.8-0.5-1.4-1.1-1.9-1.9s-0.7-1.7-0.7-2.6C152.5,95.4,152.7,94.5,153.2,93.7z M155,98c0.3,0.5,0.7,0.9,1.2,1.2
		c0.5,0.3,1,0.4,1.6,0.4c0.6,0,1.1-0.1,1.6-0.4c0.5-0.3,0.8-0.7,1.1-1.2c0.3-0.5,0.4-1.1,0.4-1.7c0-0.6-0.1-1.2-0.4-1.7
		c-0.3-0.5-0.7-0.9-1.1-1.2s-1-0.4-1.6-0.4s-1.1,0.1-1.6,0.4s-0.9,0.7-1.1,1.2c-0.3,0.5-0.4,1.1-0.4,1.7
		C154.6,96.9,154.7,97.5,155,98z"/>
	<path class="st16" d="M166.3,98.6c0.2,0.3,0.5,0.5,0.8,0.7c0.3,0.2,0.7,0.3,1,0.3c0.4,0,0.8-0.1,1.1-0.3c0.3-0.2,0.6-0.4,0.8-0.7
		s0.3-0.6,0.3-0.9v-6.5h2v6.5c0,0.7-0.2,1.4-0.6,2c-0.4,0.6-0.9,1.1-1.5,1.4c-0.6,0.3-1.3,0.5-2.1,0.5c-0.8,0-1.5-0.2-2.1-0.5
		c-0.6-0.3-1.1-0.8-1.5-1.4c-0.4-0.6-0.6-1.3-0.6-2v-6.5h2v6.5C166,98,166.1,98.3,166.3,98.6z"/>
	<path class="st16" d="M183.1,91.2v10.7H183l-7.2-6.5l0,6.1h-2.1V90.8h0.1l7.2,6.6l0-6.2H183.1z"/>
	<path class="st16" d="M191.1,91.2v2h-2.5v8.3h-2v-8.3h-2.4v-2H191.1z"/>
</g>
</svg>
