<?xml version="1.0" encoding="utf-8"?>
<!-- Generator: Adobe Illustrator 22.1.0, SVG Export Plug-In . SVG Version: 6.00 Build 0)  -->
<svg version="1.1" id="Layer_1" xmlns="http://www.w3.org/2000/svg" xmlns:xlink="http://www.w3.org/1999/xlink" x="0px" y="0px"
	 width="216.8px" height="130.7px" viewBox="0 0 216.8 130.7" style="enable-background:new 0 0 216.8 130.7;" xml:space="preserve"
	>
<style type="text/css">
	.st0{fill:#AE9692;}
	.st1{fill:#91756A;}
	.st2{fill:#7D6769;}
	.st3{fill:#1E1A1E;}
	.st4{fill:#6E5A5B;}
	.st5{fill:#1D1B22;}
	.st6{fill:#CBBFB8;}
	.st7{fill:#977F72;}
	.st8{fill:#A09291;}
	.st9{fill:#795E52;}
	.st10{fill:#9E8B96;}
	.st11{fill:#796C7C;}
	.st12{fill:#322628;}
	.st13{fill:#584542;}
	.st14{fill:#4E4347;}
	.st15{display:none;enable-background:new    ;}
	.st16{display:inline;fill:#FFFFFF;}
	.st17{enable-background:new    ;}
	.st18{fill:#FFFFFF;}
</style>
<polygon class="st0" points="66.6,8.5 52.2,8.5 52.2,0 60.5,0 "/>
<polygon class="st1" points="35.7,0 28.8,8.5 52.5,8.6 52.5,0 "/>
<rect x="52.2" y="8.5" class="st2" width="14.3" height="93.7"/>
<polygon class="st3" points="66.6,35.8 62.8,40.5 62.8,107.2 66.6,107.2 "/>
<polygon class="st4" points="41.1,100.6 40.3,26 28.8,18.1 28.8,8.5 52.5,8.5 52.5,101.9 40.8,101.9 "/>
<polygon class="st5" points="38.2,33.8 38.2,107.2 41.3,107.2 41.3,26.3 37.6,23.9 "/>
<polygon class="st6" points="38.7,24.6 28.4,17.7 23.4,17.7 23.4,24.6 "/>
<polygon class="st7" points="35.1,130.7 23.5,130.7 23.5,63.7 23.5,24.6 38.7,24.6 38.7,104.7 37.1,107.3 37.1,130.7 "/>
<polygon class="st8" points="18.8,17.7 7.8,17.7 2.3,24.6 24.2,24.6 24.2,17.7 "/>
<polygon class="st9" points="2.3,32.1 2.3,130.7 24.2,130.7 24.2,24.6 2.3,24.6 "/>
<polygon class="st10" points="62.8,101.9 66.5,107.2 55.7,107.2 55.7,101.9 "/>
<polygon class="st11" points="52.5,107.2 37.1,107.2 40.8,101.9 55.7,101.9 55.7,107.2 "/>
<polygon class="st12" points="42.5,130.7 37.1,130.7 37.1,107.2 55.7,107.2 55.7,130.7 "/>
<polygon class="st13" points="57.3,130.7 66.6,130.7 66.6,107.2 55.7,107.2 55.7,130.7 "/>
<path class="st14" d="M86.5,30.9H72.3H70c-0.1,0-0.4,0.1-0.7,0.2c-3.5,1.1-3.6,6.2-3.5,6.9v16.3v52.9v16.3c-0.1,0.7,0,5.8,3.5,6.9
	c0.3,0.1,0.5,0.2,0.7,0.2h2.3h14.3h107.3H208h2.3c0.1,0,0.4-0.1,0.7-0.2c3.5-1.1,3.6-6.2,3.5-6.9v-16.3V54.3V38
	c0.1-0.7,0-5.8-3.5-6.9c-0.3-0.1-0.5-0.2-0.7-0.2H208h-14.3H86.5z"/>
<g class="st15">
	<path class="st16" d="M83.9,64.2V78h-0.1l-9.3-8.4l0.1,7.8H72V63.7h0.1l9.3,8.5l-0.1-8H83.9z"/>
	<path class="st16" d="M92.9,74.9h-4.4l-1.1,2.6h-2.6l6-13.8H91l6,13.8h-3L92.9,74.9z M92.1,72.7l-1.3-3.2l-1.3,3.2H92.1z"/>
	<path class="st16" d="M104.9,64.2v2.5h-3.2v10.7h-2.6V66.7H96v-2.5H104.9z"/>
	<path class="st16" d="M109.1,64.2v13.2h-2.6V64.2H109.1z"/>
	<path class="st16" d="M111.7,67.5c0.6-1,1.4-1.9,2.5-2.5s2.2-0.9,3.4-0.9s2.3,0.3,3.4,0.9s1.9,1.4,2.5,2.5s0.9,2.2,0.9,3.4
		c0,1.2-0.3,2.4-0.9,3.4s-1.4,1.9-2.5,2.5c-1,0.6-2.2,0.9-3.4,0.9c-1.2,0-2.4-0.3-3.4-0.9s-1.9-1.4-2.5-2.5c-0.6-1-0.9-2.2-0.9-3.4
		C110.8,69.7,111.1,68.5,111.7,67.5z M114.1,73c0.4,0.6,0.9,1.2,1.5,1.5s1.3,0.6,2.1,0.6c0.7,0,1.4-0.2,2-0.6s1.1-0.9,1.4-1.5
		s0.5-1.4,0.5-2.1c0-0.8-0.2-1.5-0.5-2.2c-0.4-0.6-0.8-1.2-1.5-1.5s-1.3-0.6-2.1-0.6s-1.4,0.2-2.1,0.6s-1.1,0.9-1.5,1.5
		s-0.5,1.4-0.5,2.2C113.5,71.6,113.7,72.3,114.1,73z"/>
	<path class="st16" d="M137.9,64.2V78h-0.1l-9.3-8.4l0.1,7.8H126V63.7h0.1l9.3,8.5l-0.1-8H137.9z"/>
	<path class="st16" d="M147,74.9h-4.4l-1.1,2.6h-2.6l6-13.8h0.1l6,13.8h-3L147,74.9z M146.1,72.7l-1.3-3.2l-1.3,3.2H146.1z"/>
	<path class="st16" d="M154.6,64.2v10.7h6.2v2.5H152V64.2H154.6z"/>
	<path class="st16" d="M175.3,65.4c0.9,0.8,1.3,1.9,1.3,3.3c0,0.8-0.2,1.5-0.5,2.2s-0.8,1.3-1.5,1.7c-0.7,0.4-1.6,0.7-2.7,0.7H170
		v4.2h-2.6V64.2h4C173.2,64.2,174.4,64.6,175.3,65.4z M173.2,70.4c0.3-0.2,0.5-0.5,0.6-0.8s0.2-0.6,0.2-0.9c0-0.5-0.1-0.9-0.4-1.4
		c-0.3-0.4-0.8-0.7-1.6-0.7h-1.9v4h1.9C172.5,70.7,172.9,70.6,173.2,70.4z"/>
	<path class="st16" d="M183.3,74.9h-4.4l-1.1,2.6h-2.6l6-13.8h0.1l6,13.8h-3L183.3,74.9z M182.4,72.7l-1.3-3.2l-1.3,3.2H182.4z"/>
	<path class="st16" d="M195.4,77.5l-2.8-4.2h-1.7v4.2h-2.6V64.2h4c1.6,0,2.9,0.4,3.8,1.2c0.9,0.8,1.4,1.9,1.4,3.3
		c0,0.8-0.2,1.6-0.5,2.3c-0.3,0.7-0.9,1.3-1.6,1.7l3.1,4.8H195.4z M190.9,70.7h1.9c0.7,0,1.2-0.2,1.5-0.6s0.5-0.9,0.5-1.3
		c0-0.5-0.1-0.9-0.4-1.4c-0.3-0.4-0.8-0.7-1.6-0.7h-1.9V70.7z"/>
	<path class="st16" d="M202.3,69.6l0.4-0.5l4.3-4.9h3.4l-5.5,5.9l5.5,7.3h-3.3l-4.1-5.7l-0.6,0.6v5h-2.6V64.2h2.6v4.7L202.3,69.6z"
		/>
</g>
<g class="st17">
	<path class="st18" d="M101.6,50.8v10h-1.9v-4.6l-3.1,4.4h0l-3-4.1v4.3h-1.8v-10h0l4.8,6.9L101.6,50.8L101.6,50.8z"/>
	<path class="st18" d="M103.5,53.5c0.4-0.8,1-1.4,1.8-1.8c0.7-0.4,1.6-0.7,2.4-0.7c0.9,0,1.7,0.2,2.4,0.7c0.8,0.4,1.3,1,1.8,1.8
		s0.7,1.6,0.7,2.4c0,0.9-0.2,1.7-0.7,2.4c-0.4,0.7-1,1.3-1.8,1.8c-0.7,0.4-1.6,0.7-2.4,0.7c-0.9,0-1.7-0.2-2.4-0.7
		c-0.7-0.4-1.3-1-1.8-1.8c-0.4-0.7-0.7-1.6-0.7-2.4C102.9,55.1,103.1,54.3,103.5,53.5z M105.2,57.5c0.3,0.5,0.6,0.8,1.1,1.1
		c0.5,0.3,1,0.4,1.5,0.4c0.5,0,1-0.1,1.5-0.4c0.4-0.3,0.8-0.6,1-1.1s0.4-1,0.4-1.5c0-0.6-0.1-1.1-0.4-1.6s-0.6-0.8-1.1-1.1
		c-0.4-0.3-0.9-0.4-1.5-0.4c-0.5,0-1,0.1-1.5,0.4c-0.4,0.3-0.8,0.6-1.1,1.1c-0.3,0.5-0.4,1-0.4,1.6C104.8,56.5,104.9,57,105.2,57.5z
		"/>
	<path class="st18" d="M116.8,52.8c-0.4,0-0.7,0.1-1,0.2c-0.2,0.2-0.3,0.4-0.3,0.7c0,0.3,0.2,0.6,0.5,0.8c0.3,0.2,0.8,0.4,1.3,0.7
		c0.5,0.2,0.8,0.4,1.2,0.6c0.3,0.2,0.6,0.5,0.8,0.9c0.2,0.4,0.3,0.8,0.3,1.4c0,0.5-0.1,1-0.4,1.4c-0.3,0.4-0.6,0.8-1.1,1
		s-1.1,0.4-1.8,0.4c-0.6,0-1.1-0.1-1.7-0.3s-1.1-0.4-1.6-0.8l0.8-1.5c0.3,0.2,0.7,0.4,1.1,0.6s0.8,0.2,1.1,0.2c0.4,0,0.7-0.1,1-0.3
		c0.3-0.2,0.4-0.4,0.4-0.8c0-0.5-0.5-0.9-1.4-1.3c-0.5-0.2-1-0.4-1.4-0.6s-0.7-0.5-0.9-0.9c-0.3-0.4-0.4-0.8-0.4-1.4
		c0-0.8,0.3-1.5,0.8-2s1.3-0.8,2.2-0.8c0.7,0,1.3,0.1,1.8,0.2c0.5,0.2,0.9,0.4,1.4,0.7l-0.7,1.4C118.1,53,117.4,52.8,116.8,52.8z"/>
	<path class="st18" d="M126.5,51.1V53h-2.3v7.7h-1.9V53h-2.2v-1.8H126.5z"/>
	<path class="st18" d="M136.8,52c0.6,0.6,1,1.4,1,2.4c0,0.6-0.1,1.1-0.3,1.6s-0.6,0.9-1.1,1.2c-0.5,0.3-1.1,0.5-1.9,0.5h-1.4v3h-1.9
		v-9.6h2.9C135.3,51.1,136.2,51.4,136.8,52z M135.3,55.6c0.2-0.2,0.4-0.3,0.5-0.6c0.1-0.2,0.1-0.4,0.1-0.6c0-0.3-0.1-0.7-0.3-1
		S135,53,134.5,53h-1.4v2.9h1.3C134.8,55.9,135.1,55.8,135.3,55.6z"/>
	<path class="st18" d="M138.9,53.5c0.4-0.8,1-1.4,1.8-1.8c0.8-0.4,1.6-0.7,2.4-0.7c0.9,0,1.7,0.2,2.4,0.7c0.8,0.4,1.3,1,1.8,1.8
		s0.7,1.6,0.7,2.4c0,0.9-0.2,1.7-0.7,2.4c-0.4,0.7-1,1.3-1.8,1.8c-0.7,0.4-1.6,0.7-2.4,0.7c-0.9,0-1.7-0.2-2.4-0.7
		c-0.7-0.4-1.3-1-1.8-1.8c-0.4-0.7-0.7-1.6-0.7-2.4C138.2,55.1,138.5,54.3,138.9,53.5z M140.6,57.5c0.3,0.5,0.6,0.8,1.1,1.1
		c0.5,0.3,1,0.4,1.5,0.4c0.5,0,1-0.1,1.5-0.4c0.4-0.3,0.8-0.6,1-1.1s0.4-1,0.4-1.5c0-0.6-0.1-1.1-0.4-1.6s-0.6-0.8-1.1-1.1
		c-0.4-0.3-0.9-0.4-1.5-0.4s-1,0.1-1.5,0.4c-0.4,0.3-0.8,0.6-1.1,1.1c-0.3,0.5-0.4,1-0.4,1.6C140.2,56.5,140.3,57,140.6,57.5z"/>
	<path class="st18" d="M154.8,52c0.6,0.6,1,1.4,1,2.4c0,0.6-0.1,1.1-0.3,1.6c-0.2,0.5-0.6,0.9-1.1,1.2c-0.5,0.3-1.1,0.5-1.9,0.5
		h-1.4v3h-1.9v-9.6h2.9C153.3,51.1,154.2,51.4,154.8,52z M153.3,55.6c0.2-0.2,0.4-0.3,0.5-0.6s0.1-0.4,0.1-0.6c0-0.3-0.1-0.7-0.3-1
		S153,53,152.5,53h-1.4v2.9h1.3C152.8,55.9,153.1,55.8,153.3,55.6z"/>
	<path class="st18" d="M158.8,58c0.2,0.3,0.4,0.5,0.7,0.7c0.3,0.2,0.6,0.3,1,0.3c0.4,0,0.7-0.1,1-0.3c0.3-0.2,0.6-0.4,0.7-0.7
		c0.2-0.3,0.3-0.6,0.3-0.9v-6h1.9v6.1c0,0.7-0.2,1.3-0.5,1.9c-0.3,0.6-0.8,1-1.4,1.3s-1.2,0.5-2,0.5c-0.7,0-1.4-0.2-2-0.5
		c-0.6-0.3-1.1-0.7-1.4-1.3c-0.3-0.5-0.5-1.2-0.5-1.9v-6.1h1.9v6C158.5,57.5,158.6,57.8,158.8,58z"/>
	<path class="st18" d="M167.9,51.1v7.7h4.5v1.8H166v-9.6H167.9z"/>
	<path class="st18" d="M178.4,58.8h-3.2l-0.8,1.9h-1.9l4.3-9.9h0.1l4.3,9.9h-2.2L178.4,58.8z M177.7,57.3l-0.9-2.3l-1,2.3H177.7z"/>
	<path class="st18" d="M187.2,60.7l-2-3h-1.3v3H182v-9.6h2.9c1.2,0,2.1,0.3,2.8,0.9s1,1.4,1,2.4c0,0.6-0.1,1.1-0.4,1.7
		s-0.6,0.9-1.1,1.2l2.2,3.5H187.2z M183.9,55.9h1.3c0.5,0,0.9-0.1,1.1-0.4s0.4-0.6,0.4-1s-0.1-0.7-0.3-1s-0.6-0.5-1.2-0.5h-1.4V55.9
		z"/>
</g>
<g class="st17">
	<path class="st18" d="M82.4,73.9v13h-0.1L73.5,79l0.1,7.4h-2.5v-13h0.1l8.7,8l-0.1-7.5H82.4z"/>
	<path class="st18" d="M90.9,84h-4.1l-1,2.4h-2.4l5.6-13h0.1l5.6,13h-2.9L90.9,84z M90.1,81.9l-1.2-3l-1.3,3H90.1z"/>
	<path class="st18" d="M102.2,73.9v2.4h-3v10.1h-2.5V76.3h-2.9v-2.4H102.2z"/>
	<path class="st18" d="M106.2,73.9v12.5h-2.5V73.9H106.2z"/>
	<path class="st18" d="M108.6,77c0.6-1,1.3-1.8,2.3-2.4s2-0.9,3.2-0.9s2.2,0.3,3.2,0.9s1.8,1.4,2.3,2.4c0.6,1,0.9,2,0.9,3.2
		c0,1.2-0.3,2.2-0.9,3.2c-0.6,1-1.4,1.7-2.3,2.3s-2,0.9-3.2,0.9c-1.2,0-2.2-0.3-3.2-0.9s-1.7-1.3-2.3-2.3s-0.9-2-0.9-3.2
		C107.8,79,108.1,78,108.6,77z M110.8,82.2c0.3,0.6,0.8,1.1,1.4,1.5c0.6,0.4,1.3,0.5,2,0.5c0.7,0,1.3-0.2,1.9-0.5
		c0.6-0.4,1-0.8,1.4-1.4c0.3-0.6,0.5-1.3,0.5-2c0-0.7-0.2-1.4-0.5-2c-0.3-0.6-0.8-1.1-1.4-1.5c-0.6-0.4-1.2-0.5-1.9-0.5
		c-0.7,0-1.4,0.2-1.9,0.5c-0.6,0.4-1,0.8-1.4,1.5c-0.3,0.6-0.5,1.3-0.5,2C110.3,80.9,110.5,81.6,110.8,82.2z"/>
	<path class="st18" d="M133.4,73.9v13h-0.1l-8.8-7.9l0.1,7.4h-2.5v-13h0.1l8.7,8l-0.1-7.5H133.4z"/>
	<path class="st18" d="M141.9,84h-4.1l-1,2.4h-2.4l5.6-13h0.1l5.6,13h-2.9L141.9,84z M141.1,81.9l-1.2-3l-1.3,3H141.1z"/>
	<path class="st18" d="M149.2,73.9V84h5.9v2.4h-8.3V73.9H149.2z"/>
	<path class="st18" d="M168.7,75c0.8,0.8,1.3,1.8,1.3,3.1c0,0.7-0.1,1.4-0.4,2.1c-0.3,0.7-0.8,1.2-1.4,1.6c-0.7,0.4-1.5,0.6-2.5,0.6
		h-1.8v4h-2.5V73.9h3.8C166.7,73.9,167.9,74.3,168.7,75z M166.7,79.7c0.3-0.2,0.5-0.5,0.6-0.7c0.1-0.3,0.2-0.6,0.2-0.8
		c0-0.4-0.1-0.9-0.4-1.3c-0.3-0.4-0.8-0.6-1.5-0.6h-1.8V80h1.8C166,80,166.4,79.9,166.7,79.7z"/>
	<path class="st18" d="M176.2,84H172l-1,2.4h-2.4l5.6-13h0.1l5.6,13h-2.9L176.2,84z M175.4,81.9l-1.2-3l-1.3,3H175.4z"/>
	<path class="st18" d="M187.7,86.4l-2.6-4h-1.6v4H181V73.9h3.8c1.6,0,2.8,0.4,3.6,1.1c0.9,0.8,1.3,1.8,1.3,3.1
		c0,0.8-0.2,1.5-0.5,2.2c-0.3,0.7-0.8,1.2-1.5,1.6l2.9,4.5H187.7z M183.4,80h1.8c0.7,0,1.2-0.2,1.5-0.6c0.3-0.4,0.5-0.8,0.5-1.3
		s-0.1-0.9-0.4-1.3c-0.3-0.4-0.8-0.6-1.5-0.6h-1.8V80z"/>
	<path class="st18" d="M194.2,79l0.4-0.5l4.1-4.6h3.2l-5.2,5.6l5.2,6.9h-3.1l-3.9-5.3l-0.6,0.6v4.7h-2.5V73.9h2.5v4.5L194.2,79z"/>
	<path class="st18" d="M206.7,76c-0.5,0-1,0.1-1.3,0.3c-0.3,0.2-0.5,0.5-0.5,1c0,0.4,0.2,0.7,0.7,1c0.4,0.3,1,0.6,1.7,0.9
		c0.6,0.2,1.1,0.5,1.5,0.7c0.4,0.3,0.8,0.7,1,1.1s0.4,1.1,0.4,1.9c0,0.6-0.2,1.2-0.5,1.8s-0.8,1-1.5,1.3c-0.6,0.3-1.4,0.5-2.3,0.5
		c-0.7,0-1.5-0.1-2.2-0.3c-0.7-0.2-1.4-0.6-2.1-1l1.1-1.9c0.4,0.3,0.9,0.6,1.5,0.8c0.6,0.2,1.1,0.3,1.5,0.3c0.5,0,1-0.1,1.4-0.3
		c0.4-0.2,0.6-0.6,0.6-1.1c0-0.6-0.6-1.2-1.8-1.7c-0.7-0.3-1.3-0.6-1.8-0.8c-0.5-0.3-0.9-0.6-1.2-1.1c-0.3-0.5-0.5-1.1-0.5-1.8
		c0-1.1,0.4-1.9,1.1-2.6c0.7-0.7,1.7-1,2.8-1.1c0.9,0,1.7,0.1,2.3,0.3c0.6,0.2,1.2,0.5,1.8,0.9l-0.9,1.9
		C208.4,76.3,207.5,76,206.7,76z"/>
</g>
<g class="st17">
	<path class="st18" d="M100.4,99.7l-4.4,10l-4.4-10H94l2.2,5.4l2.1-5.4H100.4z"/>
	<path class="st18" d="M103.3,99.7v9.6h-1.9v-9.6H103.3z"/>
	<path class="st18" d="M108,101.3c-0.4,0-0.7,0.1-1,0.2c-0.2,0.2-0.3,0.4-0.3,0.7c0,0.3,0.2,0.6,0.5,0.8s0.8,0.4,1.3,0.7
		c0.5,0.2,0.8,0.4,1.2,0.6c0.3,0.2,0.6,0.5,0.8,0.9c0.2,0.4,0.3,0.8,0.3,1.4c0,0.5-0.1,1-0.4,1.4c-0.3,0.4-0.6,0.8-1.1,1
		s-1.1,0.4-1.8,0.4c-0.6,0-1.1-0.1-1.7-0.3s-1.1-0.4-1.6-0.8l0.8-1.5c0.3,0.2,0.7,0.4,1.1,0.6s0.8,0.2,1.1,0.2c0.4,0,0.7-0.1,1-0.3
		c0.3-0.2,0.4-0.4,0.4-0.8c0-0.5-0.5-0.9-1.4-1.3c-0.5-0.2-1-0.4-1.4-0.6c-0.4-0.2-0.7-0.5-0.9-0.9c-0.3-0.4-0.4-0.8-0.4-1.4
		c0-0.8,0.3-1.5,0.8-2c0.5-0.5,1.3-0.8,2.2-0.8c0.7,0,1.3,0.1,1.8,0.2c0.5,0.2,0.9,0.4,1.4,0.7l-0.7,1.4
		C109.4,101.6,108.6,101.3,108,101.3z"/>
	<path class="st18" d="M113.9,99.7v9.6H112v-9.6H113.9z"/>
	<path class="st18" d="M121.5,99.7v1.8h-2.3v7.7h-1.9v-7.7H115v-1.8H121.5z"/>
	<path class="st18" d="M122.4,102.1c0.4-0.8,1-1.4,1.8-1.8c0.8-0.4,1.6-0.7,2.4-0.7c0.9,0,1.7,0.2,2.4,0.7c0.8,0.4,1.3,1,1.8,1.8
		s0.7,1.6,0.7,2.4c0,0.9-0.2,1.7-0.7,2.4c-0.4,0.7-1,1.3-1.8,1.8c-0.7,0.4-1.6,0.7-2.4,0.7c-0.9,0-1.7-0.2-2.4-0.7
		c-0.7-0.4-1.3-1-1.8-1.8c-0.4-0.7-0.7-1.6-0.7-2.4C121.7,103.6,121.9,102.8,122.4,102.1z M124,106c0.3,0.5,0.6,0.8,1.1,1.1
		c0.5,0.3,1,0.4,1.5,0.4c0.5,0,1-0.1,1.5-0.4c0.4-0.3,0.8-0.6,1-1.1s0.4-1,0.4-1.5c0-0.6-0.1-1.1-0.4-1.6s-0.6-0.8-1.1-1.1
		c-0.4-0.3-0.9-0.4-1.5-0.4s-1,0.1-1.5,0.4c-0.4,0.3-0.8,0.6-1.1,1.1c-0.3,0.5-0.4,1-0.4,1.6C123.7,105,123.8,105.6,124,106z"/>
	<path class="st18" d="M137.8,109.3l-2-3h-1.3v3h-1.9v-9.6h2.9c1.2,0,2.1,0.3,2.8,0.9s1,1.4,1,2.4c0,0.6-0.1,1.1-0.4,1.7
		s-0.6,0.9-1.1,1.2l2.2,3.5H137.8z M134.6,104.4h1.3c0.5,0,0.9-0.1,1.1-0.4s0.4-0.6,0.4-1s-0.1-0.7-0.3-1s-0.6-0.5-1.2-0.5h-1.4
		V104.4z"/>
	<path class="st18" d="M150.5,109.1c-0.5,0.2-1.1,0.3-1.7,0.3c-1,0-1.9-0.2-2.6-0.6c-0.7-0.4-1.3-1-1.7-1.7
		c-0.4-0.7-0.6-1.5-0.6-2.4c0-1,0.2-1.8,0.6-2.6s0.9-1.3,1.6-1.8c0.7-0.4,1.5-0.6,2.4-0.6c0.6,0,1.1,0.1,1.6,0.2
		c0.5,0.2,0.9,0.4,1.3,0.6l-0.7,1.8c-0.7-0.5-1.4-0.8-2.1-0.8c-0.5,0-0.9,0.1-1.4,0.4s-0.8,0.6-1,1.1s-0.4,1-0.4,1.5
		c0,0.6,0.1,1.2,0.4,1.6c0.2,0.5,0.6,0.8,1,1.1c0.4,0.3,0.9,0.4,1.5,0.4c0.5,0,0.9-0.1,1.3-0.2s0.7-0.3,0.9-0.5l0.8,1.7
		C151.4,108.7,151,108.9,150.5,109.1z"/>
	<path class="st18" d="M152.9,102.1c0.4-0.8,1-1.4,1.8-1.8c0.7-0.4,1.6-0.7,2.4-0.7c0.9,0,1.7,0.2,2.4,0.7c0.7,0.4,1.3,1,1.8,1.8
		s0.7,1.6,0.7,2.4c0,0.9-0.2,1.7-0.7,2.4c-0.4,0.7-1,1.3-1.8,1.8c-0.8,0.4-1.6,0.7-2.4,0.7c-0.9,0-1.7-0.2-2.4-0.7s-1.3-1-1.8-1.8
		c-0.4-0.7-0.7-1.6-0.7-2.4C152.3,103.6,152.5,102.8,152.9,102.1z M154.6,106c0.3,0.5,0.6,0.8,1.1,1.1c0.5,0.3,1,0.4,1.5,0.4
		c0.5,0,1-0.1,1.5-0.4c0.4-0.3,0.8-0.6,1-1.1c0.3-0.5,0.4-1,0.4-1.5c0-0.6-0.1-1.1-0.4-1.6c-0.3-0.5-0.6-0.8-1.1-1.1
		c-0.4-0.3-0.9-0.4-1.5-0.4s-1,0.1-1.5,0.4c-0.4,0.3-0.8,0.6-1.1,1.1s-0.4,1-0.4,1.6C154.2,105,154.4,105.6,154.6,106z"/>
	<path class="st18" d="M165.2,106.6c0.2,0.3,0.4,0.5,0.7,0.7c0.3,0.2,0.6,0.3,1,0.3c0.4,0,0.7-0.1,1-0.3c0.3-0.2,0.6-0.4,0.7-0.7
		s0.3-0.6,0.3-0.9v-6h1.9v6.1c0,0.7-0.2,1.3-0.5,1.9c-0.3,0.6-0.8,1-1.4,1.3s-1.2,0.5-2,0.5c-0.7,0-1.4-0.2-1.9-0.5
		c-0.6-0.3-1.1-0.7-1.4-1.3c-0.3-0.5-0.5-1.2-0.5-1.9v-6.1h1.9v6C165,106,165,106.3,165.2,106.6z"/>
	<path class="st18" d="M181,99.7v10H181l-6.7-6l0,5.7h-1.9v-9.9h0.1l6.7,6.1l0-5.8H181z"/>
	<path class="st18" d="M188.6,99.7v1.8h-2.3v7.7h-1.9v-7.7h-2.2v-1.8H188.6z"/>
</g>
</svg>
