<?xml version="1.0" encoding="utf-8"?>
<!-- Generator: Adobe Illustrator 22.1.0, SVG Export Plug-In . SVG Version: 6.00 Build 0)  -->
<svg version="1.1" id="Layer_1" xmlns="http://www.w3.org/2000/svg" xmlns:xlink="http://www.w3.org/1999/xlink" x="0px" y="0px"
	 width="200px" height="250px" viewBox="0 0 200 250" enable-background="new 0 0 200 250" xml:space="preserve">
<image display="none" overflow="visible" width="700" height="1080" xlink:href="pine-tree-icon-vector-14293019.jpg"  transform="matrix(0.2609 0 0 0.2609 8.6678 6.5084)">
</image>
<path fill="#577C61" d="M145.4064,82.6962c-4.1766-3.5358-8.4252-7.5602-12.6023-12.1391
	c-18.9755-20.8007-27.8736-43.6116-32.2934-60.0984l-0.1972-0.7319c-4.4392,16.6537-13.3763,39.6958-32.4352,60.7073
	c-4.1955,4.6253-8.4627,8.6905-12.6577,12.2621H145.4064z"/>
<path fill="#3A6043" d="M161.2377,126.7433c-2.5122-2.1389-5.0677-4.5734-7.5802-7.3433
	c-11.4136-12.5829-16.7657-26.382-19.4242-36.3552H66.3936c-2.6585,9.9733-8.0106,23.7723-19.4242,36.3552
	c-2.5125,2.7699-5.068,5.2044-7.5802,7.3433H161.2377z"/>
<path fill="#224229" d="M174.7399,170.7905c-2.5122-2.1389-5.0677-4.5734-7.5802-7.3433
	c-11.4136-12.5829-16.7657-26.3819-19.4242-36.3552H52.8914c-2.6585,9.9733-8.0106,23.7723-19.4242,36.3552
	c-2.5125,2.7699-5.068,5.2044-7.5802,7.3433H174.7399z"/>
<path fill="#102614" d="M162.4244,171.139c2.6584,9.9733,8.0106,23.7723,19.4242,36.3552c2.5125,2.7699,5.068,5.2044,7.5802,7.3433
	H10.5712c2.5122-2.1389,5.0677-4.5734,7.5802-7.3433c11.4136-12.5829,16.7658-26.382,19.4242-36.3552H162.4244z"/>
<rect x="79.4076" y="215.1862" fill="#262219" width="41.8117" height="25.087"/>
</svg>
